<?xml version="1.0" encoding="UTF-8" standalone="no"?>
<svg
   xmlns:dc="http://purl.org/dc/elements/1.1/"
   xmlns:cc="http://creativecommons.org/ns#"
   xmlns:rdf="http://www.w3.org/1999/02/22-rdf-syntax-ns#"
   xmlns:svg="http://www.w3.org/2000/svg"
   xmlns="http://www.w3.org/2000/svg"
   xmlns:xlink="http://www.w3.org/1999/xlink"
   xmlns:sodipodi="http://sodipodi.sourceforge.net/DTD/sodipodi-0.dtd"
   xmlns:inkscape="http://www.inkscape.org/namespaces/inkscape"
   width="750"
   height="500"
   viewBox="0 0 198.43751 132.29167"
   version="1.1"
   id="svg8"
   inkscape:version="1.0 (4035a4fb49, 2020-05-01)"
   sodipodi:docname="background_nobody_won.svg">
  <defs
     id="defs2">
    <linearGradient
       id="linearGradient1070"
       inkscape:collect="always">
      <stop
         id="stop1066"
         offset="0"
         style="stop-color:#ccf3f2;stop-opacity:1;" />
      <stop
         id="stop1068"
         offset="1"
         style="stop-color:#ccf3f2;stop-opacity:0;" />
    </linearGradient>
    <linearGradient
       id="linearGradient1050"
       inkscape:collect="always">
      <stop
         id="stop1046"
         offset="0"
         style="stop-color:#deaa87;stop-opacity:1;" />
      <stop
         id="stop1048"
         offset="1"
         style="stop-color:#deaa87;stop-opacity:0;" />
    </linearGradient>
    <linearGradient
       inkscape:collect="always"
       id="linearGradient950">
      <stop
         style="stop-color:#dfb056;stop-opacity:1;"
         offset="0"
         id="stop946" />
      <stop
         style="stop-color:#ec4f00;stop-opacity:1"
         offset="1"
         id="stop948" />
    </linearGradient>
    <linearGradient
       id="linearGradient3003"
       inkscape:collect="always">
      <stop
         id="stop2999"
         offset="0"
         style="stop-color:#602755;stop-opacity:1" />
      <stop
         id="stop3001"
         offset="1"
         style="stop-color:#8f00ff;stop-opacity:1" />
    </linearGradient>
    <linearGradient
       id="linearGradient2933-3"
       inkscape:collect="always">
      <stop
         id="stop2929"
         offset="0"
         style="stop-color:#0000ff;stop-opacity:1;" />
      <stop
         id="stop2931"
         offset="1"
         style="stop-color:#00007d;stop-opacity:1" />
    </linearGradient>
    <linearGradient
       gradientTransform="matrix(-0.22777346,1.5747901,1.6211843,0.2344838,-111.5179,31.93888)"
       gradientUnits="userSpaceOnUse"
       y2="123.03125"
       x2="22.489584"
       y1="72.760414"
       x1="22.489584"
       id="linearGradient2862"
       xlink:href="#linearGradient2860"
       inkscape:collect="always" />
    <linearGradient
       id="linearGradient2860"
       inkscape:collect="always">
      <stop
         id="stop2856"
         offset="0"
         style="stop-color:#ffff34;stop-opacity:1" />
      <stop
         id="stop2858"
         offset="1"
         style="stop-color:#ff9d00;stop-opacity:1" />
    </linearGradient>
    <linearGradient
       gradientTransform="matrix(0.01964372,1.5910558,1.6379293,-0.02022243,-116.73469,56.392466)"
       gradientUnits="userSpaceOnUse"
       y2="92.604164"
       x2="2.6458333"
       y1="99.21875"
       x1="18.520834"
       id="linearGradient2876"
       xlink:href="#linearGradient2874"
       inkscape:collect="always" />
    <linearGradient
       id="linearGradient2874"
       inkscape:collect="always">
      <stop
         id="stop2870"
         offset="0"
         style="stop-color:#b82a2a;stop-opacity:1" />
      <stop
         id="stop2872"
         offset="1"
         style="stop-color:#fe180f;stop-opacity:1" />
    </linearGradient>
    <linearGradient
       id="linearGradient2941"
       inkscape:collect="always">
      <stop
         id="stop2937"
         offset="0"
         style="stop-color:#ff6600;stop-opacity:1;" />
      <stop
         id="stop2939"
         offset="1"
         style="stop-color:#803300;stop-opacity:1" />
    </linearGradient>
    <linearGradient
       gradientUnits="userSpaceOnUse"
       y2="0"
       x2="95.25"
       y1="132.29167"
       x1="95.25"
       id="linearGradient3005"
       xlink:href="#linearGradient3003"
       inkscape:collect="always" />
    <linearGradient
       inkscape:collect="always"
       xlink:href="#linearGradient950"
       id="linearGradient922"
       x1="108.47916"
       y1="60.854168"
       x2="84.666664"
       y2="34.395832"
       gradientUnits="userSpaceOnUse" />
    <linearGradient
       inkscape:collect="always"
       xlink:href="#linearGradient950"
       id="linearGradient930"
       x1="79.375"
       y1="39.6875"
       x2="111.125"
       y2="48.947918"
       gradientUnits="userSpaceOnUse" />
    <linearGradient
       inkscape:collect="always"
       xlink:href="#linearGradient950"
       id="linearGradient944"
       x1="97.895836"
       y1="30.427084"
       x2="120.38541"
       y2="39.6875"
       gradientUnits="userSpaceOnUse" />
    <linearGradient
       inkscape:collect="always"
       xlink:href="#linearGradient950"
       id="linearGradient952"
       x1="64.822914"
       y1="52.916668"
       x2="92.604164"
       y2="59.53125"
       gradientUnits="userSpaceOnUse" />
    <radialGradient
       gradientUnits="userSpaceOnUse"
       gradientTransform="matrix(0.77018299,0,0,0.64353358,49.757313,-1.0418946)"
       r="57.385414"
       fy="56.885418"
       fx="61.799103"
       cy="56.885418"
       cx="61.799103"
       id="radialGradient1052"
       xlink:href="#linearGradient1050"
       inkscape:collect="always" />
    <radialGradient
       gradientUnits="userSpaceOnUse"
       gradientTransform="matrix(0.77018299,0,0,0.64353358,49.757313,-1.0418946)"
       r="57.385414"
       fy="56.885418"
       fx="61.799103"
       cy="56.885418"
       cx="61.799103"
       id="radialGradient1072"
       xlink:href="#linearGradient1070"
       inkscape:collect="always" />
    <linearGradient
       gradientTransform="matrix(-1.3304389,-0.93629416,-0.94496151,1.3427549,319.13532,9.9369803)"
       gradientUnits="userSpaceOnUse"
       y2="71.4375"
       x2="54.239582"
       y1="119.0625"
       x1="54.239582"
       id="linearGradient2935-0"
       xlink:href="#linearGradient2933-3"
       inkscape:collect="always" />
    <linearGradient
       gradientTransform="matrix(-1.3304389,-0.93629416,-0.94496151,1.3427549,319.13532,9.9369803)"
       gradientUnits="userSpaceOnUse"
       y2="89.958336"
       x2="78.052086"
       y1="93.927086"
       x1="62.177082"
       id="linearGradient2943-8"
       xlink:href="#linearGradient2941"
       inkscape:collect="always" />
  </defs>
  <sodipodi:namedview
     id="base"
     pagecolor="#ffffff"
     bordercolor="#666666"
     borderopacity="1.0"
     inkscape:pageopacity="0.0"
     inkscape:pageshadow="2"
     inkscape:zoom="1.1794541"
     inkscape:cx="321.11905"
     inkscape:cy="261.48392"
     inkscape:document-units="mm"
     inkscape:current-layer="layer1"
     inkscape:document-rotation="0"
     showgrid="true"
     units="px"
     inkscape:window-width="1898"
     inkscape:window-height="1020"
     inkscape:window-x="0"
     inkscape:window-y="0"
     inkscape:window-maximized="0">
    <inkscape:grid
       type="xygrid"
       id="grid833" />
  </sodipodi:namedview>
  <metadata
     id="metadata5">
    <rdf:RDF>
      <cc:Work
         rdf:about="">
        <dc:format>image/svg+xml</dc:format>
        <dc:type
           rdf:resource="http://purl.org/dc/dcmitype/StillImage" />
        <dc:title></dc:title>
      </cc:Work>
    </rdf:RDF>
  </metadata>
  <g
     inkscape:label="Warstwa 1"
     inkscape:groupmode="layer"
     id="layer1">
    <rect
       style="fill:url(#linearGradient3005);fill-opacity:1;stroke:none;stroke-width:0.314;stroke-linecap:round;stroke-linejoin:round;stroke-miterlimit:4;stroke-dasharray:none"
       id="rect835"
       width="198.46437"
       height="132.29167"
       x="0"
       y="0"
       ry="0" />
    <path
       style="fill:#e6e6e6;stroke:#808080;stroke-width:1.256;stroke-linecap:round;stroke-linejoin:round;stroke-miterlimit:4;stroke-dasharray:none;stroke-opacity:1"
       d="m 35.693846,91.585166 c 17.090345,7.361508 39.40696,7.392448 58.350841,1.116124 5.181352,-1.716648 6.947253,-11.703434 4.787778,-17.113641 -2.005128,-5.023473 -12.867127,-5.208523 -12.867127,-5.208523 0,0 1.449007,-10.528396 -1.19692,-13.76539 -3.413775,-4.176301 -10.181806,-4.656595 -14.307615,-1.632917 -3.884664,2.84694 -5.441925,15.398307 -5.441925,15.398307 0,0 -2.181371,-8.874219 -5.074634,-11.205469 -3.533998,-2.847491 -9.064448,-4.325953 -12.580238,-1.443796 -2.975756,2.439444 -3.291572,12.649265 -3.291572,12.649265 0,0 -6.270936,-1.965258 -10.633285,-0.243257 -2.673749,1.055454 -3.949584,4.889733 -4.627703,7.311948 -1.456418,5.2023 2.696026,12.334111 6.8824,14.137349 z"
       id="path838-6-4"
       sodipodi:nodetypes="ssacaacaacsss" />
    <rect
       transform="scale(-1,1)"
       style="fill:none;stroke:none;stroke-width:1.272;stroke-linecap:round;stroke-linejoin:round"
       id="rect982"
       width="78.752884"
       height="86.295471"
       x="-90.198662"
       y="47.583694"
       ry="0" />
    <path
       sodipodi:nodetypes="ccasc"
       id="path973"
       d="M 52.095106,77.697894 40.154735,58.593995 c 0,0 5.841607,-3.042999 8.829792,-2.422168 4.397087,0.913548 8.238609,2.750384 10.497963,8.44472 C 61.271435,69.125306 63.5,82.020833 63.5,82.020833"
       style="fill:#ffae09;fill-opacity:1;stroke:#000000;stroke-width:1.25;stroke-linecap:round;stroke-linejoin:round;stroke-miterlimit:4;stroke-dasharray:none;stroke-opacity:1" />
    <path
       sodipodi:nodetypes="ssaaacacacacaaacacacaaassaaaaccs"
       id="path851"
       d="m 30.959053,65.692317 c -3.163838,-0.674139 -7.288386,-1.160445 -10.326011,-0.18213 -2.68962,0.866218 -5.161276,2.077794 -6.735329,4.107499 -2.885481,3.720752 -1.102303,9.571588 -3.864569,13.374648 -0.6380903,0.878507 -1.5893637,1.847537 -2.7312894,1.899898 -2.174156,0.09969 -5.6902558,-3.117968 -5.6902558,-3.117968 0,0 1.4972589,4.748972 3.5071005,6.080694 1.6668533,1.104475 6.0153817,0.870049 6.0153817,0.870049 0,0 -1.8308411,2.865082 -3.0448061,4.067551 -1.4888126,1.474713 -5.1072287,3.769231 -5.1072287,3.769231 0,0 3.7550589,0.368956 5.4672532,-0.192778 1.0736219,-0.352244 2.7312896,-1.899898 2.7312896,-1.899898 0,0 -0.21522,5.259394 1.017349,7.523757 2.165987,3.97912 5.909156,7.80451 10.423645,9.21212 5.326733,1.66084 11.919691,0.92079 16.587563,-1.86288 2.16447,-1.29076 4.045804,-6.13573 4.045804,-6.13573 0,0 3.483912,7.78591 2.866157,11.72535 -0.740475,4.72245 -7.576035,12.34607 -7.576035,12.34607 0,0 4.09172,-0.66724 5.848161,-1.61301 1.203101,-0.64783 3.019299,-2.67788 3.019299,-2.67788 0,0 2.26755,2.77181 3.878694,3.51166 4.236647,1.94551 9.340887,2.57337 13.944632,1.85298 3.95779,-0.61929 7.636891,-2.69387 10.654106,-5.13597 2.113236,-1.71042 4.511095,-3.87618 4.874354,-6.3877 L 85.501977,84.072452 C 86.20131,79.237374 83.599759,74.070815 80.508343,70.072275 77.982075,66.804681 74.173569,64.241411 70.149674,62.836664 66.867956,61.691 63.09842,61.419357 59.721412,62.14797 c -3.591463,0.774863 -6.785825,2.89433 -9.522422,5.179688 -2.677548,2.236066 -6.433364,8.085365 -6.433364,8.085365 L 37.703738,68.79887 c 0,0 -4.060076,-2.534511 -6.744685,-3.106553 z"
       style="fill:url(#linearGradient2862);fill-opacity:1;stroke:#000000;stroke-width:1.27057;stroke-linecap:round;stroke-linejoin:round;stroke-miterlimit:4;stroke-dasharray:none;stroke-opacity:1" />
    <path
       sodipodi:nodetypes="aaasscsacaa"
       id="path857"
       d="m 42.996647,83.332319 c -2.678289,-0.749909 -4.219304,-3.727231 -5.739398,-6.056375 -1.902698,-2.915384 -3.136106,-6.26797 -4.047137,-9.627992 -0.763781,-2.816935 -3.953187,-7.774132 -1.149125,-8.6802 1.72735,-0.558153 2.886647,3.510998 3.377027,4.26929 l 4.974115,7.691662 0.190353,-12.715403 c 0.04008,-2.676796 4.33097,3.783324 5.461058,6.260279 1.848656,4.051981 1.725022,13.12087 1.725022,13.12087 0,0 -0.364187,3.693746 -1.676349,4.888159 -0.77518,0.705636 -2.078979,1.139948 -3.115566,0.84971 z"
       style="fill:url(#linearGradient2876);fill-opacity:1;stroke:#000000;stroke-width:1.27123;stroke-linecap:round;stroke-linejoin:round;stroke-miterlimit:4;stroke-dasharray:none;stroke-opacity:1" />
    <ellipse
       transform="matrix(-0.14314777,0.98970133,0.98970133,0.14314777,0,0)"
       ry="3.1557617"
       rx="3.1974587"
       cy="40.947128"
       cx="66.056297"
       id="path859"
       style="mix-blend-mode:normal;fill:#000000;fill-opacity:1;stroke-width:1.92464;stroke-linecap:round;stroke-linejoin:round;stroke-miterlimit:4;stroke-dasharray:none" />
    <ellipse
       transform="matrix(-0.14314777,0.98970133,0.98970133,0.14314777,0,0)"
       ry="4.009428"
       rx="4.0721765"
       style="fill:#000000;fill-opacity:1;stroke-width:2.44821;stroke-linecap:round;stroke-linejoin:round;stroke-miterlimit:4;stroke-dasharray:none"
       id="path859-8"
       cx="83.328972"
       cy="42.175171" />
    <ellipse
       ry="1.6681566"
       rx="1.7039667"
       transform="matrix(-0.14314777,0.98970133,0.98970133,0.14314777,0,0)"
       cy="43.087509"
       cx="82.170937"
       id="path858"
       style="fill:#e6e6e6;stroke:none;stroke-width:3.18608;stroke-linecap:round;stroke-linejoin:round" />
    <ellipse
       ry="1.4468241"
       rx="1.4744999"
       transform="matrix(-0.14314777,0.98970133,0.98970133,0.14314777,0,0)"
       cy="41.629951"
       cx="65.191406"
       id="path860"
       style="fill:#e6e6e6;stroke:none;stroke-width:2.76018;stroke-linecap:round;stroke-linejoin:round" />
    <rect
       ry="0"
       y="4.1536322"
       x="113.40054"
       height="86.499809"
       width="80.519585"
       id="rect982-6"
       style="fill:none;stroke:none;stroke-width:1.28771;stroke-linecap:round;stroke-linejoin:round" />
    <path
       style="fill:#e6e6e6;stroke:#808080;stroke-width:1.256;stroke-linecap:round;stroke-linejoin:round;stroke-miterlimit:4;stroke-dasharray:none;stroke-opacity:1"
       d="m 93.494992,127.0866 c 16.442448,5.72462 37.913058,5.74869 56.138788,0.86794 4.98493,-1.33494 6.68388,-9.10111 4.60627,-13.30833 -1.92911,-3.90648 -12.37934,-4.05036 -12.37934,-4.05036 0,0 1.39408,-8.18733 -1.15155,-10.704547 -3.28436,-3.247673 -9.79582,-3.621154 -13.76522,-1.26982 -3.7374,2.213877 -5.23562,11.974367 -5.23562,11.974367 0,0 -2.09868,-6.90098 -4.88226,-8.71384 -3.40003,-2.214347 -8.72082,-3.364059 -12.10333,-1.12278 -2.86295,1.89704 -3.16679,9.83662 -3.16679,9.83662 0,0 -6.033198,-1.52828 -10.230168,-0.18917 -2.5724,0.82075 -3.79987,3.80246 -4.45227,5.68609 -1.4012,4.04553 2.59381,9.59156 6.62149,10.99383 z"
       id="path838-6"
       sodipodi:nodetypes="ssacaacaacsss" />
    <path
       style="fill:#ffb90f;fill-opacity:1;stroke:#000000;stroke-width:1.25;stroke-linecap:round;stroke-linejoin:round;stroke-miterlimit:4;stroke-dasharray:none;stroke-opacity:1"
       d="m 51.828701,101.71964 -16.864055,14.93771 c 0,0 4.739979,4.57348 7.781611,4.82478 4.475734,0.3698 8.680299,-0.30327 12.460515,-5.12406 2.993173,-3.81709 8.784316,-15.55266 8.784316,-15.55266"
       id="path973-7"
       sodipodi:nodetypes="ccasc" />
    <ellipse
       ry="0.39407313"
       rx="0.38989705"
       cy="40.956856"
       cx="-85.821152"
       id="path990"
       style="fill:#ffffff;fill-opacity:1;stroke:#ffffff;stroke-width:0.740749;stroke-linecap:round;stroke-linejoin:round;stroke-miterlimit:4;stroke-dasharray:none"
       transform="rotate(-81.769964)" />
    <ellipse
       ry="0.3781549"
       rx="0.38650706"
       cy="40.208153"
       cx="-67.880791"
       id="path992"
       style="fill:#ffffff;fill-opacity:1;stroke:#ffffff;stroke-width:0.722472;stroke-linecap:round;stroke-linejoin:round;stroke-miterlimit:4;stroke-dasharray:none"
       transform="rotate(-81.769964)" />
    <g
       id="g958"
       transform="rotate(21.31269,161.70008,43.410914)">
      <path
         sodipodi:nodetypes="cssaaaaaaac"
         id="path891"
         d="m 66.145832,68.791666 c 0,0 8.024587,2.259997 11.90625,1.322916 20.071351,-4.845472 39.566288,-10.746277 55.949978,-28.569626 2.81535,-3.062745 -3.30904,-8.057463 -6.61458,-10.583334 -4.13274,-3.157958 -9.7443,-4.255348 -14.93956,-4.503289 -2.24597,-0.107188 -4.4029,0.91755 -6.61459,1.322917 -2.63838,0.483573 -5.37696,0.523842 -7.937497,1.322917 -7.908938,2.468165 -15.588267,5.999122 -22.489583,10.583333 -4.941785,3.282589 -9.634948,7.186269 -13.229167,11.90625 -1.194759,1.568975 -2.688674,3.320045 -2.645833,5.291667 0.09863,4.539015 6.614583,11.90625 6.614583,11.90625"
         style="fill:url(#linearGradient922);fill-opacity:1;stroke:#000000;stroke-width:1.256;stroke-linecap:round;stroke-linejoin:round;stroke-miterlimit:4;stroke-dasharray:none;stroke-opacity:1" />
      <path
         sodipodi:nodetypes="cacaac"
         id="path893"
         d="m 60.854167,56.885417 c 0,0 3.532662,-0.131192 5.291665,-10e-7 8.893411,0.663295 26.458335,3.968751 26.458335,3.968751 0,0 -6.195259,-7.611663 -10.583334,-9.260417 -4.540748,-1.706119 -9.97483,-1.605613 -14.552083,0 -2.664429,0.934631 -6.614583,5.291667 -6.614583,5.291667 z"
         style="fill:url(#linearGradient952);fill-opacity:1;stroke:#000000;stroke-width:1.256;stroke-linecap:round;stroke-linejoin:round;stroke-miterlimit:4;stroke-dasharray:none;stroke-opacity:1" />
      <path
         sodipodi:nodetypes="cacaac"
         style="fill:url(#linearGradient930);fill-opacity:1;stroke:#000000;stroke-width:1.256;stroke-linecap:round;stroke-linejoin:round;stroke-miterlimit:4;stroke-dasharray:none;stroke-opacity:1"
         d="m 71.4375,43.65625 c 0,0 7.035705,-1.555312 10.583333,-1.322917 10.459374,0.685164 30.427087,7.9375 30.427087,7.9375 0,0 -10.83249,-8.394791 -17.19792,-10.583333 C 91.473787,38.389174 87.289798,37.752916 83.343749,38.364583 79.051931,39.029847 71.4375,43.65625 71.4375,43.65625 Z"
         id="path893-1" />
      <path
         sodipodi:nodetypes="caacaaac"
         style="fill:url(#linearGradient944);fill-opacity:1;stroke:#000000;stroke-width:1.256;stroke-linecap:round;stroke-linejoin:round;stroke-miterlimit:4;stroke-dasharray:none;stroke-opacity:1"
         d="m 91.28125,33.072917 c 0,0 6.200428,0.723504 9.26042,1.322916 3.56853,0.69903 7.23657,1.223783 10.58333,2.645834 3.82882,1.62688 10.58333,6.614583 10.58333,6.614583 0,0 -0.95295,-5.7211 -2.64583,-7.9375 -1.93018,-2.527085 -4.89405,-4.370183 -7.9375,-5.291667 -3.37641,-1.022293 -7.08965,-0.489307 -10.58333,0 -3.179297,0.445276 -9.26042,2.645834 -9.26042,2.645834 z"
         id="path893-4" />
    </g>
    <ellipse
       ry="36.583767"
       rx="43.81218"
       cy="35.565788"
       cx="97.353935"
       id="path1044"
       style="fill:url(#radialGradient1072);fill-opacity:1;stroke:url(#radialGradient1052);stroke-width:0.729706;stroke-linecap:round;stroke-linejoin:round;stroke-miterlimit:4;stroke-dasharray:none" />
    <path
       sodipodi:nodetypes="ssacaacaacsss"
       id="path838-6-8"
       d="m 11.930896,38.247317 c 23.82784,6.847878 54.942302,6.87667 81.354397,1.038243 7.223987,-1.596875 9.686047,-10.886885 6.67525,-15.919625 -2.7956,-4.672991 -17.93971,-4.845102 -17.93971,-4.845102 0,0 2.02026,-9.7938077 -1.66878,-12.8049327 -4.75958,-3.884912 -14.195771,-4.331675 -19.948088,-1.518978 -5.41611,2.648277 -7.587279,14.3239107 -7.587279,14.3239107 0,0 -3.041334,-8.255057 -7.075201,-10.4236277 C 40.81428,5.4483783 33.103576,4.0730783 28.20176,6.7541313 24.052872,9.0233873 23.612558,18.520833 23.612558,18.520833 c 0,0 -8.743119,-1.828152 -14.8252197,-0.226288 -3.727833,0.981793 -5.50664,4.54856 -6.452075,6.801787 -2.03056997,4.839324 3.758859,11.473569 9.5956327,13.150985 z"
       style="fill:#e6e6e6;stroke:#808080;stroke-width:1.65369;stroke-linecap:round;stroke-linejoin:round;stroke-miterlimit:4;stroke-dasharray:none;stroke-opacity:1" />
    <path
       style="fill:#e6e6e6;stroke:#808080;stroke-width:1.65369;stroke-linecap:round;stroke-linejoin:round;stroke-miterlimit:4;stroke-dasharray:none;stroke-opacity:1"
       d="m 107.28088,59.413985 c 23.82784,6.847877 54.9423,6.876669 81.35439,1.038244 7.22399,-1.596877 9.68605,-10.886888 6.67525,-15.919626 -2.7956,-4.672991 -17.93971,-4.845103 -17.93971,-4.845103 0,0 2.02026,-9.793807 -1.66878,-12.804932 -4.75958,-3.884912 -14.19577,-4.331675 -19.94808,-1.518978 -5.41611,2.648277 -7.58728,14.32391 -7.58728,14.32391 0,0 -3.04134,-8.255056 -7.0752,-10.423627 -4.92721,-2.648827 -12.63791,-4.024127 -17.53973,-1.343074 -4.14889,2.269256 -4.5892,11.766701 -4.5892,11.766701 0,0 -8.74312,-1.828152 -14.82522,-0.226287 -3.72783,0.981792 -5.50664,4.54856 -6.452075,6.801787 -2.03057,4.839324 3.758855,11.473569 9.595635,13.150985 z"
       id="path838-6-8-5"
       sodipodi:nodetypes="ssacaacaacsss" />
    <path
       sodipodi:nodetypes="caac"
       id="path940"
       d="m 15.345835,61.912499 c 0,0 -2.917356,-4.160123 -4.963534,-4.170013 -1.5198592,-0.0073 -2.4126652,1.916938 -1.4256432,3.072714 1.3288212,1.556017 6.3891772,1.097299 6.3891772,1.097299"
       style="fill:#00ffff;stroke:#000000;stroke-width:1.256;stroke-linecap:round;stroke-linejoin:round;stroke-miterlimit:4;stroke-dasharray:none;stroke-opacity:1" />
    <path
       style="fill:#00ffff;stroke:#000000;stroke-width:1.256;stroke-linecap:round;stroke-linejoin:round;stroke-miterlimit:4;stroke-dasharray:none;stroke-opacity:1"
       d="m 21.166667,57.149999 c 0,0 1.13247,-4.953292 -0.231501,-6.478586 -1.013165,-1.132927 -3.03967,-0.505975 -3.235999,1.00117 -0.264318,2.029062 3.4675,5.477416 3.4675,5.477416"
       id="path940-0"
       sodipodi:nodetypes="caac" />
    <path
       style="fill:#00ffff;stroke:#000000;stroke-width:1.256;stroke-linecap:round;stroke-linejoin:round;stroke-miterlimit:4;stroke-dasharray:none;stroke-opacity:1"
       d="m 29.633332,56.091665 c 0,0 4.017654,-3.110636 3.930865,-5.154995 -0.06451,-1.518507 -2.028779,-2.31941 -3.136634,-1.278887 -1.491502,1.400848 -0.794231,6.433882 -0.794231,6.433882"
       id="path940-7"
       sodipodi:nodetypes="caac" />
    <path
       style="fill:#0000d7;fill-opacity:1;stroke:#000000;stroke-width:1.25;stroke-linecap:round;stroke-linejoin:round;stroke-miterlimit:4;stroke-dasharray:none;stroke-opacity:1"
       d="M 140.22917,82.020833 125.52469,64.953011 c 0,0 -4.6382,4.67666 -4.9313,7.714552 -0.43128,4.470228 0.18394,8.68365 4.9523,12.52977 3.77559,3.04536 15.43045,8.99728 15.43045,8.99728"
       id="path973-7-9-0"
       sodipodi:nodetypes="ccasc" />
    <rect
       transform="rotate(35.135903)"
       ry="0"
       y="-65.264809"
       x="136.43118"
       height="86.499809"
       width="80.519585"
       id="rect982-6-7"
       style="fill:none;stroke:none;stroke-width:1.28771;stroke-linecap:round;stroke-linejoin:round" />
    <path
       style="fill:url(#linearGradient2935-0);fill-opacity:1;stroke:#000000;stroke-width:1.28626;stroke-linecap:round;stroke-linejoin:round;stroke-miterlimit:4;stroke-dasharray:none;stroke-opacity:1"
       d="m 144.55155,56.816018 c 1.68283,-2.771988 4.16911,-6.111004 6.99576,-7.634981 2.50282,-1.349387 5.11239,-2.29865 7.71149,-2.022872 4.76455,0.505555 7.89159,5.895923 12.63236,6.548642 1.09512,0.150774 2.47398,0.137202 3.30163,-0.656409 1.5758,-1.510975 1.60715,-6.318785 1.60715,-6.318785 0,0 2.50367,4.411485 2.10769,6.804579 -0.32843,1.984686 -3.50627,4.982274 -3.50627,4.982274 0,0 3.39874,0.673607 5.13291,0.632367 2.1268,-0.05057 6.33508,-1.075849 6.33508,-1.075849 0,0 -2.31851,2.988284 -3.91945,3.84008 -1.00387,0.534125 -3.30164,0.656412 -3.30164,0.656412 0,0 4.06661,3.523593 4.90217,6.004121 1.46833,4.359021 1.73291,9.757171 -0.33636,14.024332 -2.44157,5.03493 -7.54615,9.310537 -12.8436,10.75655 -2.4564,0.67051 -7.36495,-1.351743 -7.36495,-1.351743 0,0 3.39397,7.980877 6.75529,10.288224 4.02936,2.76595 14.42938,3.13048 14.42938,3.13048 0,0 -3.32292,2.50802 -5.24052,3.12327 -1.31349,0.42143 -4.08008,0.32146 -4.08008,0.32146 0,0 0.49881,3.58806 -0.0627,5.27713 -1.47667,4.44156 -4.53408,8.59191 -8.25021,11.43502 -3.19473,2.4442 -7.28106,3.66748 -11.18408,4.1524 -2.73363,0.33962 -6.00303,0.56761 -8.12488,-0.92563 l -27.67295,-19.4748 c -4.08485,-2.8747 -6.13693,-8.38127 -6.9806,-13.426707 -0.68943,-4.123101 0.0313,-8.685626 1.76389,-12.594126 1.41301,-3.187598 3.81398,-6.118292 6.68903,-8.063758 3.05759,-2.06899 6.8426,-2.908438 10.43506,-3.299006 3.51494,-0.382119 10.46621,0.980032 10.46621,0.980032 l -0.74064,-9.035282 c 0,0 0.91593,-4.725329 2.34388,-7.077425 z"
       id="path851-3-3"
       sodipodi:nodetypes="ssaaacacacacaaacacacaaassaaaaccs" />
    <path
       style="fill:url(#linearGradient2943-8);fill-opacity:1;stroke:#000000;stroke-width:1.28693;stroke-linecap:round;stroke-linejoin:round;stroke-miterlimit:4;stroke-dasharray:none;stroke-opacity:1"
       d="m 150.03144,77.274911 c 0.63557,-2.624023 -1.19496,-5.361836 -2.4854,-7.708945 -1.41464,-2.572983 -3.55855,-4.655503 -5.61592,-6.719248 -2.39252,-2.399936 -4.6238,-8.084753 -7.77385,-6.535105 -0.62825,0.309062 -0.41963,1.250152 -0.0522,2.09176 l 2.59813,9.099436 -10.45368,-1.107424 c -2.72181,-0.288338 2.54926,4.295942 4.44487,5.844063 3.37759,2.75845 7.9917,3.529165 11.78524,5.680028 1.44365,0.818531 2.50656,2.90532 4.15772,2.738666 1.5896,-0.160441 3.01902,-1.830451 3.39512,-3.383231 z"
       id="path857-0-9"
       sodipodi:nodetypes="aaaascsaaaa" />
    <ellipse
       transform="matrix(-0.81778925,-0.57551781,-0.57551781,0.81778925,0,0)"
       style="mix-blend-mode:normal;fill:#000000;fill-opacity:1;stroke-width:2.59542;stroke-linecap:round;stroke-linejoin:round;stroke-miterlimit:4;stroke-dasharray:none"
       id="path859-89-9"
       cx="-157.68912"
       cy="-35.499313"
       rx="4.4050841"
       ry="4.1654949" />
    <ellipse
       transform="rotate(35.135903)"
       cy="-32.86673"
       cx="178.40671"
       id="path859-8-7-3"
       style="fill:#000000;fill-opacity:1;stroke-width:2.70579;stroke-linecap:round;stroke-linejoin:round;stroke-miterlimit:4;stroke-dasharray:none"
       rx="4.5137873"
       ry="4.418323" />
    <ellipse
       transform="rotate(35.135903)"
       ry="1.0860701"
       rx="1.0761085"
       style="fill:#e6e6e6;stroke:none;stroke-width:2.04298;stroke-linecap:round;stroke-linejoin:round"
       id="path858-2-7"
       cx="181.16306"
       cy="-32.63002" />
    <ellipse
       ry="1.0860701"
       rx="1.0761085"
       transform="matrix(-0.81778925,-0.57551781,-0.57551781,0.81778925,0,0)"
       style="fill:#e6e6e6;stroke:none;stroke-width:2.04298;stroke-linecap:round;stroke-linejoin:round"
       id="path860-6-5"
       cx="-160.70308"
       cy="-35.177048" />
    <path
       sodipodi:nodetypes="ccasc"
       id="path973-7-9"
       d="m 156.10417,92.604167 22.5172,-0.712475 c 0,0 -0.30778,6.579467 -2.34723,8.850008 -3.00103,3.34107 -6.52068,5.73761 -12.57873,4.82657 -4.79677,-0.72136 -17.06353,-5.28069 -17.06353,-5.28069"
       style="fill:#0000d7;fill-opacity:1;stroke:#000000;stroke-width:1.25;stroke-linecap:round;stroke-linejoin:round;stroke-miterlimit:4;stroke-dasharray:none;stroke-opacity:1" />
    <ellipse
       transform="rotate(35.135903)"
       ry="0.8919456"
       rx="0.86832207"
       cy="-37.091145"
       cx="156.23495"
       id="path1016-4"
       style="fill:#ffffff;fill-opacity:1;stroke:#ffffff;stroke-width:1.6631;stroke-linecap:round;stroke-linejoin:round;stroke-miterlimit:4;stroke-dasharray:none" />
    <ellipse
       transform="rotate(35.135903)"
       ry="0.96773565"
       rx="0.93230039"
       cy="-34.72879"
       cx="177.18193"
       id="path1018-1"
       style="fill:#ffffff;fill-opacity:1;stroke:#ffffff;stroke-width:1.795;stroke-linecap:round;stroke-linejoin:round;stroke-miterlimit:4;stroke-dasharray:none" />
    <path
       sodipodi:nodetypes="caac"
       id="path940-4"
       d="m 160.56386,75.449337 c 0,0 -4.76088,1.775298 -5.2859,3.752995 -0.38997,1.468993 1.24734,2.817752 2.61448,2.153713 1.84058,-0.893988 2.67142,-5.906708 2.67142,-5.906708"
       style="fill:#00ffff;stroke:#000000;stroke-width:1.256;stroke-linecap:round;stroke-linejoin:round;stroke-miterlimit:4;stroke-dasharray:none;stroke-opacity:1" />
    <g
       transform="rotate(0.79184379,-413.52193,-917.47103)"
       id="g1042">
      <rect
         style="fill:#deaa87;stroke:#000000;stroke-width:1.265;stroke-linecap:round;stroke-linejoin:round;stroke-miterlimit:4;stroke-dasharray:none"
         id="rect939"
         width="7.9375"
         height="19.84375"
         x="185.20833"
         y="56.885414"
         ry="2.6458359" />
      <rect
         style="fill:#e9c6af;stroke:#000000;stroke-width:1;stroke-linecap:round;stroke-linejoin:round;stroke-miterlimit:4;stroke-dasharray:none"
         id="rect943"
         width="7.9375"
         height="6.614583"
         x="185.20833"
         y="63.5"
         ry="2.6458333" />
      <circle
         style="fill:#deaa87;stroke:#deaa87;stroke-width:1;stroke-linecap:round;stroke-linejoin:round;stroke-miterlimit:4;stroke-dasharray:none"
         id="path945"
         cx="187.47145"
         cy="65.184357"
         r="0.13229166" />
      <circle
         style="fill:#deaa87;stroke:#deaa87;stroke-width:1;stroke-linecap:round;stroke-linejoin:round;stroke-miterlimit:4;stroke-dasharray:none"
         id="path1000"
         cx="189.34718"
         cy="65.191437"
         r="0.13229166" />
      <circle
         style="fill:#deaa87;stroke:#deaa87;stroke-width:1;stroke-linecap:round;stroke-linejoin:round;stroke-miterlimit:4;stroke-dasharray:none"
         id="path1017"
         cx="191.16853"
         cy="65.215065"
         r="0.13229166" />
      <circle
         style="fill:#deaa87;stroke:#deaa87;stroke-width:1;stroke-linecap:round;stroke-linejoin:round;stroke-miterlimit:4;stroke-dasharray:none"
         id="path1019"
         cx="187.47856"
         cy="66.771851"
         r="0.13229166" />
      <circle
         style="fill:#deaa87;stroke:#deaa87;stroke-width:1;stroke-linecap:round;stroke-linejoin:round;stroke-miterlimit:4;stroke-dasharray:none"
         id="path1021"
         cx="189.31645"
         cy="66.783669"
         r="0.13229166" />
      <circle
         style="fill:#deaa87;stroke:#deaa87;stroke-width:1;stroke-linecap:round;stroke-linejoin:round;stroke-miterlimit:4;stroke-dasharray:none"
         id="path1023"
         cx="191.15672"
         cy="66.783669"
         r="0.13229166" />
      <circle
         style="fill:#deaa87;stroke:#deaa87;stroke-width:1;stroke-linecap:round;stroke-linejoin:round;stroke-miterlimit:4;stroke-dasharray:none"
         id="path1025"
         cx="187.49509"
         cy="68.366447"
         r="0.13229166" />
      <circle
         style="fill:#deaa87;stroke:#deaa87;stroke-width:1;stroke-linecap:round;stroke-linejoin:round;stroke-miterlimit:4;stroke-dasharray:none"
         id="path1027"
         cx="189.32355"
         cy="68.366447"
         r="0.13229166" />
      <circle
         style="fill:#deaa87;stroke:#deaa87;stroke-width:1;stroke-linecap:round;stroke-linejoin:round;stroke-miterlimit:4;stroke-dasharray:none"
         id="path1029"
         cx="191.15201"
         cy="68.378258"
         r="0.13229166" />
    </g>
  </g>
</svg>
