<?xml version="1.0" encoding="UTF-8" standalone="no"?>
<svg
   xmlns:dc="http://purl.org/dc/elements/1.1/"
   xmlns:cc="http://creativecommons.org/ns#"
   xmlns:rdf="http://www.w3.org/1999/02/22-rdf-syntax-ns#"
   xmlns:svg="http://www.w3.org/2000/svg"
   xmlns="http://www.w3.org/2000/svg"
   xmlns:sodipodi="http://sodipodi.sourceforge.net/DTD/sodipodi-0.dtd"
   xmlns:inkscape="http://www.inkscape.org/namespaces/inkscape"
   width="750"
   height="500"
   viewBox="0 0 198.43751 132.29167"
   version="1.1"
   id="svg8"
   inkscape:version="1.0 (4035a4fb49, 2020-05-01)"
   sodipodi:docname="clouds.svg">
  <defs
     id="defs2" />
  <sodipodi:namedview
     id="base"
     pagecolor="#ffffff"
     bordercolor="#666666"
     borderopacity="1.0"
     inkscape:pageopacity="0.0"
     inkscape:pageshadow="2"
     inkscape:zoom="1.4"
     inkscape:cx="344.7741"
     inkscape:cy="274.36127"
     inkscape:document-units="mm"
     inkscape:current-layer="layer1"
     inkscape:document-rotation="0"
     showgrid="true"
     units="px"
     inkscape:window-width="1898"
     inkscape:window-height="1020"
     inkscape:window-x="0"
     inkscape:window-y="0"
     inkscape:window-maximized="0">
    <inkscape:grid
       type="xygrid"
       id="grid833" />
  </sodipodi:namedview>
  <metadata
     id="metadata5">
    <rdf:RDF>
      <cc:Work
         rdf:about="">
        <dc:format>image/svg+xml</dc:format>
        <dc:type
           rdf:resource="http://purl.org/dc/dcmitype/StillImage" />
        <dc:title></dc:title>
      </cc:Work>
    </rdf:RDF>
  </metadata>
  <g
     inkscape:label="Warstwa 1"
     inkscape:groupmode="layer"
     id="layer1">
    <path
       sodipodi:nodetypes="ssacaacaacsss"
       id="path838"
       d="m 31.75,95.438987 c 10.793761,3.739516 27.7231,2.999289 39.687499,-0.188988 3.272389,-0.872027 4.362955,-7.806939 2.07887,-10.583332 -2.121188,-2.578386 -10.016369,0 -10.016369,0 0,0 -2.233634,-3.964332 -4.157738,-4.913691 -1.629696,-0.804096 -3.813732,-1.062424 -5.445492,-0.262526 -1.891571,0.927259 -3.625937,5.176217 -3.625937,5.176217 0,0 -0.965405,-6.403701 -3.39398,-7.960025 -2.124602,-1.361527 -5.569215,-1.329666 -7.567329,0.211512 -2.130954,1.64364 -2.267857,7.748513 -2.267857,7.748513 0,0 -3.460705,-0.998318 -6.215837,-0.12357 -1.688667,0.536148 -2.994283,2.483894 -3.422556,3.714344 -0.91982,2.642684 1.702722,6.265527 4.346726,7.181546 z"
       style="fill:#e6e6e6;stroke:#808080;stroke-width:1.265;stroke-linecap:round;stroke-linejoin:round;stroke-miterlimit:4;stroke-dasharray:none;stroke-opacity:1" />
    <path
       style="fill:#e6e6e6;stroke:#808080;stroke-width:1.265;stroke-linecap:round;stroke-linejoin:round;stroke-miterlimit:4;stroke-dasharray:none;stroke-opacity:1"
       d="m 111.125,74.272315 c 10.79376,3.73952 24.88828,3.755242 36.85268,0.566972 3.27239,-0.87203 4.38768,-5.945155 3.02381,-8.693454 C 149.73511,63.593995 142.875,63.5 142.875,63.5 c 0,0 0.91514,-5.348236 -0.75595,-6.992561 -2.15603,-2.121481 -6.43052,-2.36546 -9.03627,-0.829489 -2.45343,1.446187 -3.43695,7.82205 -3.43695,7.82205 0,0 -1.37769,-4.507947 -3.20499,-5.692169 -2.23197,-1.446475 -5.72484,-2.197503 -7.94531,-0.733428 -1.8794,1.239196 -2.07886,6.425597 -2.07886,6.425597 0,0 -3.96054,-0.998319 -6.71567,-0.123571 -1.68867,0.536149 -2.49445,2.483895 -2.92273,3.714345 -0.91982,2.642684 1.70273,6.265527 4.34673,7.181541 z"
       id="path838-6"
       sodipodi:nodetypes="ssacaacaacsss" />
    <path
       style="fill:#e6e6e6;stroke:#808080;stroke-width:1.25;stroke-linecap:round;stroke-linejoin:round;stroke-miterlimit:4;stroke-dasharray:none;stroke-opacity:1"
       d="M 98.61234,55.210878 C 91.753945,57.844249 80.996981,57.32298 73.394758,55.077792 71.315475,54.46371 70.622523,49.580139 72.073842,47.625 c 1.347806,-1.815702 6.364432,0 6.364432,0 0,0 1.419263,-2.791686 2.641843,-3.460226 1.035517,-0.566245 2.423258,-0.74816 3.460084,-0.184871 1.201917,0.652977 2.303936,3.645097 2.303936,3.645097 0,0 0.613425,-4.509492 2.156547,-5.605457 1.349979,-0.958789 3.538703,-0.936352 4.808309,0.148947 C 95.163006,43.325943 95.25,47.625 95.25,47.625 c 0,0 2.198941,-0.703016 3.949561,-0.08702 1.072989,0.377556 1.902579,1.74916 2.174709,2.615644 0.58445,1.860981 -1.08192,4.412191 -2.76193,5.057252 z"
       id="path838-0"
       sodipodi:nodetypes="ssacaacaacsss" />
    <path
       sodipodi:nodetypes="ssacaacsacsss"
       id="path838-0-0"
       d="m 191.68488,102.83588 c -6.8584,2.63337 -17.61537,2.1121 -25.21759,-0.13309 -2.07928,-0.61408 -3.26934,-5.849968 -1.32091,-7.45279 1.8862,-1.551623 6.83279,2.645833 6.83279,2.645833 0,0 -1.6618,-5.404682 -0.0944,-7.239988 1.41831,-1.660709 4.35726,-1.437801 6.48389,-0.940823 1.65302,0.386298 4.19382,2.889145 4.19382,2.889145 0,0 0,-2.645834 -0.48928,-2.959624 -2.30403,-1.477645 6.65592,-2.10417 8.2101,0.148947 1.0974,1.59093 -1.96079,5.45651 -1.96079,5.45651 0,0 2.19895,-0.703016 3.94956,-0.08702 1.07299,0.377556 1.90259,1.74916 2.17471,2.615644 0.58446,1.860981 -1.08191,4.412186 -2.76192,5.057256 z"
       style="fill:#e6e6e6;stroke:#808080;stroke-width:1.25;stroke-linecap:round;stroke-linejoin:round;stroke-miterlimit:4;stroke-dasharray:none;stroke-opacity:1" />
  </g>
</svg>
