<?xml version="1.0" encoding="UTF-8" standalone="no"?>
<svg
   xmlns:dc="http://purl.org/dc/elements/1.1/"
   xmlns:cc="http://creativecommons.org/ns#"
   xmlns:rdf="http://www.w3.org/1999/02/22-rdf-syntax-ns#"
   xmlns:svg="http://www.w3.org/2000/svg"
   xmlns="http://www.w3.org/2000/svg"
   xmlns:sodipodi="http://sodipodi.sourceforge.net/DTD/sodipodi-0.dtd"
   xmlns:inkscape="http://www.inkscape.org/namespaces/inkscape"
   width="120"
   height="120"
   viewBox="0 0 31.75 31.750002"
   version="1.1"
   id="svg8"
   inkscape:version="1.0 (4035a4fb49, 2020-05-01)"
   sodipodi:docname="kaczka.svg"
   inkscape:export-filename="C:\Users\olaka\OneDrive\Obrazy\Inkscape\kaczki_emotki\kaczki_wszystkie.png"
   inkscape:export-xdpi="96"
   inkscape:export-ydpi="96">
  <defs
     id="defs2">
    <marker
       inkscape:stockid="Arrow1Mstart"
       orient="auto"
       refY="0"
       refX="0"
       id="Arrow1Mstart"
       style="overflow:visible"
       inkscape:isstock="true">
      <path
         id="path1005"
         d="M 0,0 5,-5 -12.5,0 5,5 Z"
         style="fill-rule:evenodd;stroke:#000000;stroke-width:1pt"
         transform="matrix(0.4,0,0,0.4,4,0)" />
    </marker>
    <marker
       inkscape:stockid="Arrow1Lend"
       orient="auto"
       refY="0"
       refX="0"
       id="Arrow1Lend"
       style="overflow:visible"
       inkscape:isstock="true">
      <path
         id="path1002"
         d="M 0,0 5,-5 -12.5,0 5,5 Z"
         style="fill-rule:evenodd;stroke:#000000;stroke-width:1pt"
         transform="matrix(-0.8,0,0,-0.8,-10,0)" />
    </marker>
    <marker
       inkscape:stockid="Arrow1Lstart"
       orient="auto"
       refY="0"
       refX="0"
       id="marker1271"
       style="overflow:visible"
       inkscape:isstock="true">
      <path
         id="path1269"
         d="M 0,0 5,-5 -12.5,0 5,5 Z"
         style="fill-rule:evenodd;stroke:#000000;stroke-width:1pt"
         transform="matrix(0.8,0,0,0.8,10,0)" />
    </marker>
    <marker
       inkscape:stockid="Arrow1Lstart"
       orient="auto"
       refY="0"
       refX="0"
       id="Arrow1Lstart"
       style="overflow:visible"
       inkscape:isstock="true">
      <path
         id="path999"
         d="M 0,0 5,-5 -12.5,0 5,5 Z"
         style="fill-rule:evenodd;stroke:#000000;stroke-width:1pt"
         transform="matrix(0.8,0,0,0.8,10,0)" />
    </marker>
    <pattern
       y="0"
       x="0"
       height="6"
       width="6"
       patternUnits="userSpaceOnUse"
       id="EMFhbasepattern" />
  </defs>
  <sodipodi:namedview
     id="base"
     pagecolor="#ffffff"
     bordercolor="#666666"
     borderopacity="1.0"
     inkscape:pageopacity="0.0"
     inkscape:pageshadow="2"
     inkscape:zoom="2.8284271"
     inkscape:cx="138.55536"
     inkscape:cy="122.35353"
     inkscape:document-units="mm"
     inkscape:current-layer="layer1"
     inkscape:document-rotation="0"
     showgrid="true"
     width="1920mm"
     units="px"
     inkscape:window-width="1898"
     inkscape:window-height="1020"
     inkscape:window-x="0"
     inkscape:window-y="0"
     inkscape:window-maximized="0">
    <inkscape:grid
       type="xygrid"
       id="grid847" />
  </sodipodi:namedview>
  <metadata
     id="metadata5">
    <rdf:RDF>
      <cc:Work
         rdf:about="">
        <dc:format>image/svg+xml</dc:format>
        <dc:type
           rdf:resource="http://purl.org/dc/dcmitype/StillImage" />
        <dc:title></dc:title>
      </cc:Work>
    </rdf:RDF>
  </metadata>
  <g
     inkscape:label="Warstwa 1"
     inkscape:groupmode="layer"
     id="layer1">
    <g
       transform="matrix(0.24055996,0,0,0.22983542,0.96022345,0.12847781)"
       inkscape:export-ydpi="20"
       inkscape:export-xdpi="20"
       id="g1062">
      <rect
         style="fill:none;stroke:none;stroke-width:2.03961;stroke-linecap:round;stroke-linejoin:round"
         id="rect982"
         width="127"
         height="137.58333"
         x="0"
         y="0"
         ry="0" />
      <g
         transform="translate(-197.8774,-98.689664)"
         id="g1050">
        <path
           style="fill:#ffe93b;fill-opacity:1;stroke:#000000;stroke-width:2;stroke-linecap:round;stroke-linejoin:round;stroke-miterlimit:4;stroke-dasharray:none;stroke-opacity:1"
           d="m 220.89617,144.19799 c -0.3495,-4.91781 -0.17149,-11.24332 2.11666,-15.61041 2.02601,-3.86678 4.55858,-7.32957 8.20209,-9.26042 6.67912,-3.53955 15.7064,0.42539 22.48958,-2.91041 1.56693,-0.77058 3.35308,-1.99367 3.70417,-3.70417 0.66846,-3.25669 -3.70416,-9.26042 -3.70416,-9.26042 0,0 7.31555,3.29348 8.99583,6.61459 1.39353,2.75435 0,9.26041 0,9.26041 0,0 5.05179,-2.13587 7.27604,-3.70416 2.72784,-1.92336 7.27604,-6.87917 7.27604,-6.87917 0,0 -0.28112,5.74276 -1.5875,8.20208 -0.81916,1.5421 -3.70417,3.70417 -3.70417,3.70417 0,0 8.53921,0.82254 11.90625,3.175 5.91686,4.13396 11.21741,10.61264 12.43542,17.72708 1.43715,8.39446 -1.29646,18.17464 -6.87917,24.60625 -2.58868,2.98231 -10.84791,4.7625 -10.84791,4.7625 0,0 11.75354,6.95151 18.25624,6.87917 7.79513,-0.0867 21.69584,-8.73126 21.69584,-8.73126 0,0 -2.03217,6.0244 -3.96875,8.46667 -1.32649,1.67287 -5.02708,3.96875 -5.02708,3.96875 0,0 3.94446,4.02376 4.7625,6.61459 2.1511,6.81276 1.97291,14.64637 -0.26459,21.43125 -1.92354,5.83287 -6.13092,10.92812 -10.77696,14.94517 -3.25405,2.81351 -7.30948,5.95691 -11.44803,5.95691 H 237.8295 c -7.96733,0 -15.6991,-5.04972 -21.43125,-10.58333 -4.6843,-4.52204 -7.93246,-10.82391 -9.26041,-17.19792 -1.08302,-5.19839 -0.64146,-10.9417 1.32291,-15.875 2.08911,-5.24657 6.25577,-9.60108 10.58334,-13.22917 4.2342,-3.54981 14.55208,-7.9375 14.55208,-7.9375 l -9.26042,-10.58333 c 0,0 -3.14302,-6.67501 -3.43958,-10.84792 z"
           id="path851"
           sodipodi:nodetypes="ssaaacacacacaaacacacaaassaaaaccs" />
        <path
           style="fill:#ff2a2a;stroke:#000000;stroke-width:2;stroke-linecap:round;stroke-linejoin:round;stroke-miterlimit:4;stroke-dasharray:none;stroke-opacity:1"
           d="m 246.82533,164.83549 c -1.40644,-3.99385 -6.48085,-5.61964 -10.31875,-7.40833 -4.20724,-1.96082 -8.91557,-2.67402 -13.49374,-3.43958 -5.32398,-0.89027 -13.45314,-6.00484 -16.13959,-1.32292 -0.53578,0.93376 0.60025,1.92108 1.85209,2.64583 l 10.05416,5.82083 -12.96458,0.52917 c -4.36177,0.17803 6.25676,6.52701 10.31875,8.20209 6.64489,2.7402 21.43125,2.38125 21.43125,2.38125 0,0 6.01614,-0.6243 7.9375,-2.64584 1.13507,-1.19425 1.87018,-3.20844 1.32291,-4.7625 z"
           id="path857"
           sodipodi:nodetypes="aaaascsacaa" />
        <circle
           style="opacity:1;mix-blend-mode:normal;fill:#000000;fill-opacity:1;stroke-width:1;stroke-linecap:round;stroke-linejoin:round;stroke-miterlimit:4;stroke-dasharray:none"
           id="path859"
           cx="231.6118"
           cy="147.76987"
           r="3.3072915" />
        <circle
           r="3.3072917"
           cy="154.28995"
           cx="259.48752"
           id="path859-8"
           style="opacity:1;fill:#000000;fill-opacity:1;stroke-width:1;stroke-linecap:round;stroke-linejoin:round;stroke-miterlimit:4;stroke-dasharray:none" />
      </g>
    </g>
  </g>
</svg>
